<svg width="300" height="50" viewBox="0 0 300 50" fill="none" xmlns="http://www.w3.org/2000/svg">
<path d="M123.417 0.00458364C123.936 0.1328 124.405 0.283918 124.819 0.453348C125.776 0.856315 126.841 1.51114 127.975 2.3995C129.714 3.74577 131.39 5.78808 133.034 8.59512C133.098 6.98325 133.421 5.75145 133.703 4.97299C133.767 4.75777 133.844 4.57459 133.908 4.43264C133.963 4.29526 134.031 4.16247 134.086 4.05257C134.209 3.79156 134.3 3.63128 134.341 3.5626C135.037 2.33996 135.962 1.39207 137.077 0.764728C137.651 0.425869 138.179 0.178597 138.666 0.00916729H123.417V0.00458364ZM147.514 40.6493L151.635 50H151.794L171.943 6.0674C172.644 4.59291 173.437 3.3657 174.293 2.42697C175.185 1.43329 176.223 0.700622 177.38 0.238126C177.608 0.151122 177.84 0.0686876 178.086 0H160.587C161.015 0.132796 161.393 0.293066 161.725 0.485391C162.886 1.17227 163.501 2.28044 163.501 3.69998C163.501 4.47386 163.31 5.38511 162.918 6.49785C162.54 7.51442 161.757 9.30947 160.587 11.828L160.259 12.5607C160.154 12.7942 160.054 13.0277 159.958 13.2201L147.514 40.6493Z" fill="white"/>
<path d="M13.6558 32.3701H12.135L9.53038 25.396L6.7209 18.4815L3.93874 25.4327L1.56183 32.3701H0L5.70548 17.2268H7.77731L13.6558 32.3701Z" fill="white"/>
<path d="M29.1922 17.2086H24.3838V18.4404H29.1694C32.4525 18.4404 34.925 21.0963 34.925 24.6268C34.925 28.2398 32.2931 31.1796 29.0556 31.1796H24.3792V32.3702L29.0738 32.3885C30.9316 32.3885 32.6437 31.6787 33.9415 30.3828C35.4077 28.9221 36.2136 26.8752 36.2136 24.6268C36.2227 20.3315 33.2675 17.2086 29.1922 17.2086Z" fill="white"/>
<path d="M56.8135 31.1978V32.3701H46.9371V17.2267H56.809V18.4036H48.253V23.949H56.1487V25.1212H48.253V31.1978H56.8135Z" fill="white"/>
<path d="M76.8441 31.2161V32.3884H67.5278V17.2267H68.8528V31.2161H76.8441Z" fill="white"/>
<path d="M88.8926 17.2267H87.563V32.3746H88.8926V17.2267Z" fill="white"/>
<path d="M135.616 32.3792H134.099L131.49 25.4006L128.681 18.4769L125.899 25.4372L123.517 32.3792H121.955L127.67 17.2267H129.733L135.616 32.3792Z" fill="white"/>
<path d="M111.223 17.2267V32.3884H109.82L101.783 21.1465C101.738 21.0778 101.688 21.0046 101.633 20.9221L100.222 18.3441L99.6114 17.2267H100.645L108.664 28.4686C108.768 28.6106 108.869 28.7846 108.973 28.9723L110.257 31.3535L109.939 28.6701C109.911 28.4595 109.898 28.2626 109.898 28.0885V17.2267H111.223Z" fill="white"/>
<path d="M100.936 27.4247V32.3885H99.6114V25.7762L100.936 27.4247Z" fill="white"/>
<path d="M252.712 32.3839H251.192L248.578 25.3961L245.764 18.4678L242.977 25.4327L240.596 32.3839H239.029L244.748 17.2131H246.825L252.712 32.3839Z" fill="white"/>
<path d="M283.68 32.3838H288.48V31.1566H283.699C280.42 31.1566 277.948 28.5053 277.948 24.9793C277.948 21.3709 280.575 18.4357 283.808 18.4357H288.48V17.2451L283.79 17.2268C281.936 17.2268 280.224 17.9366 278.927 19.2325C277.46 20.6932 276.659 22.7355 276.659 24.9839C276.659 29.2654 279.614 32.3838 283.68 32.3838Z" fill="white"/>
<path d="M228.31 17.2404V32.3792H226.908L218.885 21.1556C218.839 21.0869 218.789 21.0137 218.734 20.9312L217.323 18.3577L216.713 17.2404H217.742L225.751 28.464C225.856 28.6059 225.956 28.7799 226.061 28.9677L227.345 31.3443L227.026 28.6655C226.999 28.4548 226.985 28.2579 226.985 28.0839V17.2404H228.31Z" fill="white"/>
<path d="M218.038 27.4247V32.3839H216.713V25.7762L218.038 27.4247Z" fill="white"/>
<path d="M206.003 17.2404H204.673V32.3792H206.003V17.2404Z" fill="white"/>
<path d="M300 17.2404H298.67V32.3792H300V17.2404Z" fill="white"/>
<path d="M180.285 17.2404H181.801L184.41 24.2145L187.215 31.1336L190.002 24.1779L192.379 17.2404H193.941L188.226 32.3837H186.168L180.285 17.2404Z" fill="white"/>
<path d="M268.08 32.3883H266.518L262.052 25.8126L261.141 24.4663H264.073C265.703 24.4663 267.028 23.1384 267.028 21.4991C267.028 19.8643 265.703 18.5363 264.073 18.5363H258.545V17.245H264.073C266.414 17.245 268.317 19.1545 268.317 21.5036C268.317 23.8527 266.414 25.7623 264.073 25.7623H263.577L268.08 32.3883Z" fill="white"/>
</svg>
