<svg xmlns="http://www.w3.org/2000/svg" width="44" height="40" viewBox="0 0 44 40" fill="none">
  <path d="M0 0.00366692C0.417791 0.10624 0.795275 0.227135 1.12878 0.362678C1.89839 0.685052 2.75596 1.20891 3.6685 1.9196C5.06847 2.99662 6.41712 4.63047 7.74013 6.87609C7.79144 5.5866 8.05164 4.60116 8.27886 3.97839C8.33017 3.80621 8.39247 3.65967 8.44378 3.54611C8.48776 3.43621 8.54273 3.32998 8.5867 3.24206C8.68565 3.03325 8.75895 2.90503 8.79193 2.85008C9.35265 1.87197 10.0966 1.11366 10.9945 0.611782C11.4563 0.340695 11.8814 0.142877 12.2735 0.00733383H0V0.00366692ZM19.3943 32.5194L22.711 40H22.8392L39.0561 4.85392C39.6205 3.67433 40.2582 2.69256 40.9472 1.94158C41.6655 1.14663 42.5011 0.560498 43.432 0.190501C43.6152 0.120897 43.8021 0.0549501 44 0H29.916C30.2605 0.106237 30.5647 0.234453 30.8323 0.388313C31.7668 0.937814 32.2615 1.82435 32.2615 2.95998C32.2615 3.57909 32.1076 4.30809 31.7924 5.19828C31.4883 6.01154 30.8579 7.44757 29.916 9.46241L29.6522 10.0485C29.5679 10.2354 29.4873 10.4222 29.4103 10.5761L19.3943 32.5194Z" fill="white"/>
</svg>